# xmcd
#
# Track frame offsets:
#	150
#	13629
#	27158
#	42252
#	60009
#	77652
#	96653
#	112499
#	124994
#	142758
#	156335
#	171624
#
# Disc length: 2491 seconds
#
# Revision: 1
# Processed by: cddbd v1.4PL0 Copyright (c) Steve Scherf et al.
# Submitted via: audiograbber 1.81.02
#
DISCID=a209b90c
DTITLE=Herança Nativa - Pra onde o vento vai
DYEAR=1900
DGENRE=Country
TTITLE0=Pura Ilusão
TTITLE1=Sacudindo a Vaneira
TTITLE2=Loucuras do coração
TTITLE3=Pra onde o vento vai
TTITLE4=Saudade do pago
TTITLE5=Meu lamento
TTITLE6=Saudade carga pesada
TTITLE7=Demonstrando valêntia
TTITLE8=Vamos Cavalo
TTITLE9=Luz do seu olhar
TTITLE10=Fandango da fronteira
TTITLE11=Som campeiro
EXTD=
EXTT0=
EXTT1=
EXTT2=
EXTT3=
EXTT4=
EXTT5=
EXTT6=
EXTT7=
EXTT8=
EXTT9=
EXTT10=
EXTT11=
PLAYORDER=
